<?xml version="1.0" encoding="UTF-8" standalone="no"?>
<svg
   xmlns:dc="http://purl.org/dc/elements/1.1/"
   xmlns:cc="http://creativecommons.org/ns#"
   xmlns:rdf="http://www.w3.org/1999/02/22-rdf-syntax-ns#"
   xmlns:svg="http://www.w3.org/2000/svg"
   xmlns="http://www.w3.org/2000/svg"
   xmlns:xlink="http://www.w3.org/1999/xlink"
   xmlns:sodipodi="http://sodipodi.sourceforge.net/DTD/sodipodi-0.dtd"
   xmlns:inkscape="http://www.inkscape.org/namespaces/inkscape"
   width="281.71432pt"
   height="297.70154pt"
   viewBox="0 0 281.71432 297.70154"
   version="1.1"
   id="svg9"
   sodipodi:docname="pen.svg"
   inkscape:version="1.0 (4035a4fb49, 2020-05-01)"
   inkscape:export-filename="D:\GitHub\Julia-Notes\pen.png"
   inkscape:export-xdpi="300"
   inkscape:export-ydpi="300">
  <metadata
     id="metadata15">
    <rdf:RDF>
      <cc:Work
         rdf:about="">
        <dc:format>image/svg+xml</dc:format>
        <dc:type
           rdf:resource="http://purl.org/dc/dcmitype/StillImage" />
        <dc:title />
      </cc:Work>
    </rdf:RDF>
  </metadata>
  <defs
     id="defs13">
    <linearGradient
       y2="304.79919"
       y1="311.08139"
       xlink:href="#linearGradient16137"
       x2="496.6998"
       x1="503.46231"
       inkscape:collect="always"
       id="linearGradient14646"
       gradientUnits="userSpaceOnUse"
       gradientTransform="translate(-474.994,-196)" />
    <linearGradient
       id="linearGradient16137">
      <stop
         style="stop-color:#db5d00;stop-opacity:1"
         offset="0"
         id="stop16139" />
      <stop
         style="stop-color:#ffd749;stop-opacity:1"
         offset="0.35076979"
         id="stop16141" />
      <stop
         style="stop-color:#fff593;stop-opacity:1"
         offset="0.59668732"
         id="stop16143" />
      <stop
         style="stop-color:#fff7c2;stop-opacity:1"
         offset="0.78382427"
         id="stop16145" />
      <stop
         style="stop-color:#ffffff;stop-opacity:1"
         offset="1"
         id="stop16147" />
    </linearGradient>
    <linearGradient
       y2="298.38019"
       y1="299.7858"
       xlink:href="#linearGradient700"
       x2="502.13281"
       x1="505.68188"
       inkscape:collect="always"
       id="linearGradient14650"
       gradientUnits="userSpaceOnUse"
       gradientTransform="translate(-474.994,-196)" />
    <linearGradient
       id="linearGradient700">
      <stop
         style="stop-color:#376796;stop-opacity:1"
         offset="0"
         id="stop347" />
      <stop
         style="stop-color:#b0dde2;stop-opacity:1"
         offset="1"
         id="stop348" />
    </linearGradient>
    <linearGradient
       y2="301.24579"
       y1="296.24219"
       xlink:href="#linearGradient5704"
       x2="503.20331"
       x1="494.79541"
       inkscape:collect="always"
       id="linearGradient14652"
       gradientUnits="userSpaceOnUse"
       gradientTransform="translate(-474.994,-196)" />
    <linearGradient
       id="linearGradient5704">
      <stop
         style="stop-color:#5a5a5a;stop-opacity:1"
         offset="0"
         id="stop5706" />
      <stop
         style="stop-color:#000000;stop-opacity:1"
         offset="1"
         id="stop5708" />
    </linearGradient>
    <linearGradient
       y2="300.82489"
       y1="302.00549"
       xlink:href="#linearGradient14614"
       x2="500.25229"
       x1="503.90671"
       inkscape:collect="always"
       id="linearGradient14654"
       gradientUnits="userSpaceOnUse"
       gradientTransform="translate(-474.994,-196)" />
    <linearGradient
       inkscape:collect="always"
       id="linearGradient14614">
      <stop
         style="stop-color:#c80000"
         offset="0"
         id="stop14616" />
      <stop
         style="stop-color:#bf0000;stop-opacity:0"
         offset="1"
         id="stop14618" />
    </linearGradient>
  </defs>
  <sodipodi:namedview
     inkscape:document-rotation="0"
     pagecolor="#ffffff"
     bordercolor="#666666"
     borderopacity="1"
     objecttolerance="10"
     gridtolerance="10"
     guidetolerance="10"
     inkscape:pageopacity="0"
     inkscape:pageshadow="2"
     inkscape:window-width="1600"
     inkscape:window-height="847"
     id="namedview11"
     showgrid="false"
     fit-margin-top="0"
     fit-margin-left="0"
     fit-margin-right="0"
     fit-margin-bottom="0"
     inkscape:zoom="1.2339013"
     inkscape:cx="146.1194"
     inkscape:cy="144.99051"
     inkscape:window-x="-8"
     inkscape:window-y="-8"
     inkscape:window-maximized="1"
     inkscape:current-layer="svg9" />
  <g
     id="surface91"
     transform="matrix(0.54300489,0,0,0.54300489,-0.48785623,134.80007)">
    <path
       style="fill:#ca3a33;fill-opacity:1;fill-rule:nonzero;stroke:none"
       d="m 150.89844,225 c 0,41.42187 -33.57813,75 -75.000002,75 -41.421876,0 -75,-33.57813 -75,-75 0,-41.42188 33.578124,-75 75,-75 41.421872,0 75.000002,33.57812 75.000002,75"
       id="path2" />
    <path
       style="fill:#389723;fill-opacity:1;fill-rule:nonzero;stroke:none"
       d="m 237.5,75 c 0,41.42188 -33.57813,75 -75,75 -41.42187,0 -75,-33.57812 -75,-75 0,-41.421875 33.57813,-75 75,-75 41.42187,0 75,33.578125 75,75"
       id="path4" />
    <path
       style="fill:#9457b0;fill-opacity:1;fill-rule:nonzero;stroke:none"
       d="m 324.10156,225 c 0,41.42187 -33.57812,75 -75,75 -41.42187,0 -75,-33.57813 -75,-75 0,-41.42188 33.57813,-75 75,-75 41.42188,0 75,33.57812 75,75"
       id="path6" />
  </g>
  <g
     transform="matrix(11.302135,0,0,11.302135,-102.55827,-1118.9114)"
     id="g15748">
    <path
       d="m 20.50599,109.5 v 10 h 2 c 2,-3 4,-5 7,-7 v -6 l -6,-1 z"
       id="path12332"
       inkscape:connector-curvature="0"
       sodipodi:nodetypes="ccccccc"
       style="fill:url(#linearGradient14646);fill-rule:evenodd;stroke:#000000;stroke-width:1px;stroke-linecap:round;stroke-linejoin:round" />
    <path
       d="M 22,117.8669 24.00599,112 c 0,0 1,0 1,0 v -2 h -2 v 2 l -1.33362,5.8646 0.32763,0.002 z"
       id="path13072"
       inkscape:connector-curvature="0"
       sodipodi:nodetypes="cccccccc"
       style="fill:#000000;fill-rule:evenodd" />
    <path
       d="m 25.29308,99.5 -1.78709,6 7.06221,1.7811 c 0.70614,-0.3233 1.01874,-1.3214 0.93779,-2.3194 L 33.5,101.6184"
       id="path13820"
       inkscape:connector-curvature="0"
       sodipodi:nodetypes="ccccc"
       style="color:#000000;fill:url(#linearGradient14650);fill-rule:evenodd;stroke:url(#linearGradient14652);stroke-width:1px;stroke-linecap:round;stroke-linejoin:round" />
    <path
       d="m 31.33134,104.9438 -5,-1"
       id="path14610"
       inkscape:connector-curvature="0"
       style="fill:none;stroke:#000000;stroke-width:1px;stroke-linecap:round" />
    <path
       d="m 30.48686,106.7926 c 0.48725,-0.2332 0.63717,-0.8036 0.61843,-1.3741 l -5.17231,-1.0434 -0.67465,1.0529 z"
       id="path14612"
       inkscape:connector-curvature="0"
       sodipodi:nodetypes="ccccc"
       style="fill:url(#linearGradient14654);fill-rule:evenodd" />
    <path
       d="M 24.92101,104.2064 26.2141,99.98988"
       id="path14622"
       inkscape:connector-curvature="0"
       sodipodi:nodetypes="cc"
       style="fill:none;stroke:#ffffff;stroke-width:1px;stroke-linecap:round" />
    <path
       d="m 33.45251,103.4948 -0.96448,1.5471 c 0.04303,1.3375 -0.47615,2.8999 -1.89485,3.0005 l 0.0083,4.9298 c -3.08937,1.587 -5.39164,4.186 -7.30037,6.9536"
       id="path14656"
       inkscape:connector-curvature="0"
       sodipodi:nodetypes="ccccc"
       style="fill:none;stroke:#000000;stroke-width:1;stroke-linecap:round;stroke-opacity:0.244957" />
    <path
       d="M 21.03975,117 21,109.725 l 2.66352,-3.5381 3.8959,0.9541 -0.67582,1.1926 -2.54426,-0.1193 -1.9082,1.8287 z"
       id="path16152"
       inkscape:connector-curvature="0"
       sodipodi:nodetypes="cccccccc"
       style="fill:#ffffff;fill-rule:evenodd" />
  </g>
</svg>
